<svg width="18" height="23" viewBox="0 0 18 23" fill="none" xmlns="http://www.w3.org/2000/svg">
<path d="M15.0489 11.9707C15.0386 10.114 15.8343 8.71462 17.4412 7.68281C16.5425 6.32157 15.1828 5.57289 13.3906 5.4286C11.6936 5.28704 9.83691 6.47403 9.15708 6.47403C8.43863 6.47403 6.79571 5.47761 5.503 5.47761C2.83519 5.52117 0 7.72637 0 12.213C0 13.5388 0.229185 14.9082 0.687554 16.3185C1.30043 18.1752 3.50987 22.7245 5.81459 22.6509C7.01974 22.621 7.8721 21.7471 9.44034 21.7471C10.9622 21.7471 11.7502 22.6509 13.0944 22.6509C15.4197 22.6156 17.418 18.4801 18 16.618C14.8815 15.0634 15.0489 12.066 15.0489 11.9707ZM12.3425 3.66717C13.6481 2.02824 13.5296 0.536326 13.491 0C12.3373 0.0707842 11.0034 0.830353 10.2438 1.76416C9.40687 2.76603 8.91502 4.00475 9.0206 5.40138C10.267 5.50211 11.4052 4.82422 12.3425 3.66717Z" fill="black"/>
</svg>
