<svg width="154" height="52" viewBox="0 0 154 52" fill="none" xmlns="http://www.w3.org/2000/svg">
<path d="M0.125 8.23389C0.125 4.46265 0.125 2.57703 1.29657 1.40546C2.46815 0.233887 4.35376 0.233887 8.125 0.233887H145.125C148.896 0.233887 150.782 0.233887 151.953 1.40546C153.125 2.57703 153.125 4.46265 153.125 8.23389V43.2339C153.125 47.0051 153.125 48.8907 151.953 50.0623C150.782 51.2339 148.896 51.2339 145.125 51.2339H8.125C4.35376 51.2339 2.46815 51.2339 1.29657 50.0623C0.125 48.8907 0.125 47.0051 0.125 43.2339V8.23389Z" fill="url(#paint0_linear_1_11120)"/>
<path d="M104.07 24.715V27.6361H102.24V29.5517H104.07V36.0605C104.07 38.2831 105.076 39.1721 107.605 39.1721C108.05 39.1721 108.473 39.1192 108.844 39.0557V37.1612C108.526 37.193 108.325 37.2141 107.976 37.2141C106.843 37.2141 106.346 36.685 106.346 35.4784V29.5517H108.844V27.6361H106.346V24.715H104.07Z" fill="white"/>
<path d="M115.287 39.3308C118.653 39.3308 120.717 37.0766 120.717 33.3406C120.717 29.6258 118.642 27.3609 115.287 27.3609C111.922 27.3609 109.847 29.6258 109.847 33.3406C109.847 37.0766 111.911 39.3308 115.287 39.3308ZM115.287 37.3094C113.308 37.3094 112.197 35.8595 112.197 33.3406C112.197 30.8429 113.308 29.3824 115.287 29.3824C117.256 29.3824 118.378 30.8429 118.378 33.3406C118.378 35.8489 117.256 37.3094 115.287 37.3094Z" fill="white"/>
<path d="M122.482 39.1086H124.758V32.3034C124.758 30.6841 125.975 29.594 127.7 29.594C128.102 29.594 128.78 29.6681 128.97 29.7316V27.4879C128.727 27.4244 128.293 27.3927 127.954 27.3927C126.451 27.3927 125.171 28.2182 124.842 29.3506H124.673V27.5832H122.482V39.1086Z" fill="white"/>
<path d="M134.62 29.2977C136.303 29.2977 137.403 30.4725 137.456 32.2822H131.635C131.762 30.483 132.937 29.2977 134.62 29.2977ZM137.446 35.997C137.022 36.8966 136.08 37.3941 134.705 37.3941C132.884 37.3941 131.709 36.1135 131.635 34.092V33.965H139.774V33.1712C139.774 29.5517 137.837 27.3609 134.631 27.3609C131.381 27.3609 129.318 29.6999 129.318 33.3829C129.318 37.066 131.339 39.3308 134.641 39.3308C137.276 39.3308 139.118 38.0608 139.637 35.997H137.446Z" fill="white"/>
<path d="M89.1484 34.8524C89.3239 37.6826 91.6824 39.4925 95.1926 39.4925C98.9442 39.4925 101.292 37.5948 101.292 34.5672C101.292 32.1868 99.9534 30.8705 96.7064 30.1136L94.9622 29.6858C92.9 29.2031 92.0663 28.5559 92.0663 27.4261C92.0663 26.0001 93.3607 25.0676 95.3023 25.0676C97.1452 25.0676 98.4176 25.9781 98.648 27.4371H101.039C100.897 24.7715 98.5493 22.8957 95.3352 22.8957C91.8798 22.8957 89.5762 24.7715 89.5762 27.5906C89.5762 29.9162 90.8816 31.2983 93.7446 31.9675L95.785 32.4611C97.8801 32.9547 98.8016 33.6787 98.8016 34.8853C98.8016 36.2894 97.3536 37.3096 95.3791 37.3096C93.262 37.3096 91.7921 36.3552 91.5836 34.8524H89.1484Z" fill="white"/>
<path d="M65.5771 27.3927C64.0107 27.3927 62.656 28.1758 61.9575 29.4882H61.7882V27.5832H59.5974V42.9398H61.8728V37.3623H62.0528C62.656 38.5794 63.9578 39.2991 65.5982 39.2991C68.5087 39.2991 70.3608 37.0025 70.3608 33.3406C70.3608 29.6787 68.5087 27.3927 65.5771 27.3927ZM64.9315 37.2565C63.0264 37.2565 61.8305 35.7536 61.8305 33.3512C61.8305 30.9381 63.0264 29.4353 64.9421 29.4353C66.8683 29.4353 68.0219 30.9064 68.0219 33.3406C68.0219 35.7854 66.8683 37.2565 64.9315 37.2565Z" fill="white"/>
<path d="M78.323 27.3927C76.7566 27.3927 75.4019 28.1758 74.7034 29.4882H74.5341V27.5832H72.3433V42.9398H74.6188V37.3623H74.7987C75.4019 38.5794 76.7037 39.2991 78.3441 39.2991C81.2546 39.2991 83.1067 37.0025 83.1067 33.3406C83.1067 29.6787 81.2546 27.3927 78.323 27.3927ZM77.6774 37.2565C75.7724 37.2565 74.5764 35.7536 74.5764 33.3512C74.5764 30.9381 75.7724 29.4353 77.688 29.4353C79.6142 29.4353 80.7678 30.9064 80.7678 33.3406C80.7678 35.7854 79.6142 37.2565 77.6774 37.2565Z" fill="white"/>
<path d="M55.5148 39.1086H58.1256L52.4105 23.2796H49.7668L44.0517 39.1086H46.5747L48.0336 34.9073H54.0669L55.5148 39.1086ZM50.9625 26.1536H51.149L53.4416 32.845H48.6589L50.9625 26.1536Z" fill="white"/>
<path d="M45.5802 11.3403V18.9763H48.3372C50.6126 18.9763 51.9303 17.574 51.9303 15.1345C51.9303 12.732 50.602 11.3403 48.3372 11.3403H45.5802ZM46.7655 12.4198H48.2049C49.7871 12.4198 50.7237 13.4253 50.7237 15.1504C50.7237 16.9019 49.803 17.8968 48.2049 17.8968H46.7655V12.4198Z" fill="white"/>
<path d="M55.9658 19.0874C57.6485 19.0874 58.6804 17.9603 58.6804 16.0923C58.6804 14.2349 57.6432 13.1025 55.9658 13.1025C54.283 13.1025 53.2458 14.2349 53.2458 16.0923C53.2458 17.9603 54.2777 19.0874 55.9658 19.0874ZM55.9658 18.0767C54.9762 18.0767 54.4206 17.3517 54.4206 16.0923C54.4206 14.8435 54.9762 14.1132 55.9658 14.1132C56.95 14.1132 57.5109 14.8435 57.5109 16.0923C57.5109 17.3464 56.95 18.0767 55.9658 18.0767Z" fill="white"/>
<path d="M67.4679 13.2136H66.3302L65.3036 17.611H65.2136L64.0283 13.2136H62.9382L61.7528 17.611H61.6681L60.6363 13.2136H59.4826L61.0702 18.9763H62.2397L63.425 14.7323H63.515L64.7056 18.9763H65.8857L67.4679 13.2136Z" fill="white"/>
<path d="M68.7781 18.9763H69.9159V15.6055C69.9159 14.7059 70.4503 14.1449 71.2917 14.1449C72.1331 14.1449 72.5353 14.6053 72.5353 15.5314V18.9763H73.673V15.2456C73.673 13.8751 72.9639 13.1025 71.678 13.1025C70.8102 13.1025 70.2387 13.4888 69.9582 14.1291H69.8735V13.2136H68.7781V18.9763Z" fill="white"/>
<path d="M75.4648 18.9763H76.6025V10.9646H75.4648V18.9763Z" fill="white"/>
<path d="M80.8814 19.0874C82.5642 19.0874 83.5961 17.9603 83.5961 16.0923C83.5961 14.2349 82.5589 13.1025 80.8814 13.1025C79.1986 13.1025 78.1615 14.2349 78.1615 16.0923C78.1615 17.9603 79.1934 19.0874 80.8814 19.0874ZM80.8814 18.0767C79.8919 18.0767 79.3362 17.3517 79.3362 16.0923C79.3362 14.8435 79.8919 14.1132 80.8814 14.1132C81.8657 14.1132 82.4266 14.8435 82.4266 16.0923C82.4266 17.3464 81.8657 18.0767 80.8814 18.0767Z" fill="white"/>
<path d="M86.986 18.1138C86.3668 18.1138 85.917 17.8121 85.917 17.2935C85.917 16.7855 86.2769 16.5156 87.0706 16.4627L88.4782 16.3728V16.8543C88.4782 17.5687 87.8432 18.1138 86.986 18.1138ZM86.6949 19.0716C87.4516 19.0716 88.0814 18.7435 88.4253 18.1667H88.5153V18.9763H89.6107V15.0392C89.6107 13.8221 88.7958 13.1025 87.3511 13.1025C86.044 13.1025 85.1127 13.7375 84.9963 14.727H86.097C86.224 14.3196 86.6632 14.0867 87.2982 14.0867C88.0761 14.0867 88.4782 14.4307 88.4782 15.0392V15.5367L86.9172 15.6266C85.5466 15.7113 84.774 16.3093 84.774 17.3464C84.774 18.3995 85.5837 19.0716 86.6949 19.0716Z" fill="white"/>
<path d="M93.4715 19.0716C94.2653 19.0716 94.9374 18.6958 95.2813 18.0661H95.3713V18.9763H96.4614V10.9646H95.3237V14.1291H95.239C94.9268 13.4941 94.26 13.1183 93.4715 13.1183C92.0163 13.1183 91.0797 14.2719 91.0797 16.0923C91.0797 17.918 92.0057 19.0716 93.4715 19.0716ZM93.7943 14.1396C94.7469 14.1396 95.3448 14.8964 95.3448 16.0976C95.3448 17.3041 94.7521 18.0503 93.7943 18.0503C92.8312 18.0503 92.2544 17.3147 92.2544 16.0923C92.2544 14.8805 92.8365 14.1396 93.7943 14.1396Z" fill="white"/>
<path d="M103.839 19.0874C105.522 19.0874 106.554 17.9603 106.554 16.0923C106.554 14.2349 105.517 13.1025 103.839 13.1025C102.156 13.1025 101.119 14.2349 101.119 16.0923C101.119 17.9603 102.151 19.0874 103.839 19.0874ZM103.839 18.0767C102.85 18.0767 102.294 17.3517 102.294 16.0923C102.294 14.8435 102.85 14.1132 103.839 14.1132C104.823 14.1132 105.384 14.8435 105.384 16.0923C105.384 17.3464 104.823 18.0767 103.839 18.0767Z" fill="white"/>
<path d="M108.06 18.9763H109.198V15.6055C109.198 14.7059 109.732 14.1449 110.573 14.1449C111.415 14.1449 111.817 14.6053 111.817 15.5314V18.9763H112.955V15.2456C112.955 13.8751 112.246 13.1025 110.96 13.1025C110.092 13.1025 109.52 13.4888 109.24 14.1291H109.155V13.2136H108.06V18.9763Z" fill="white"/>
<path d="M118.195 11.7795V13.2401H117.279V14.1979H118.195V17.4523C118.195 18.5635 118.697 19.0081 119.962 19.0081C120.184 19.0081 120.396 18.9816 120.581 18.9498V18.0026C120.422 18.0185 120.322 18.0291 120.147 18.0291C119.581 18.0291 119.332 17.7645 119.332 17.1612V14.1979H120.581V13.2401H119.332V11.7795H118.195Z" fill="white"/>
<path d="M122.108 18.9763H123.246V15.6108C123.246 14.7376 123.765 14.1502 124.696 14.1502C125.5 14.1502 125.929 14.6159 125.929 15.5367V18.9763H127.067V15.2562C127.067 13.8856 126.31 13.1078 125.082 13.1078C124.214 13.1078 123.606 13.4941 123.325 14.1396H123.236V10.9646H122.108V18.9763Z" fill="white"/>
<path d="M131.171 14.0709C132.012 14.0709 132.563 14.6582 132.589 15.5631H129.679C129.742 14.6635 130.33 14.0709 131.171 14.0709ZM132.584 17.4205C132.372 17.8703 131.901 18.119 131.213 18.119C130.303 18.119 129.716 17.4787 129.679 16.468V16.4045H133.748V16.0076C133.748 14.1979 132.78 13.1025 131.176 13.1025C129.552 13.1025 128.52 14.2719 128.52 16.1135C128.52 17.955 129.531 19.0874 131.182 19.0874C132.499 19.0874 133.42 18.4524 133.679 17.4205H132.584Z" fill="white"/>
<path d="M31.7055 26.1174C31.7331 23.9742 32.8841 21.9461 34.7101 20.8236C33.5582 19.1784 31.6287 18.1353 29.6214 18.0725C27.4803 17.8478 25.4047 19.3537 24.3137 19.3537C23.2015 19.3537 21.5217 18.0948 19.7128 18.132C17.355 18.2082 15.157 19.5487 14.0098 21.6101C11.544 25.8793 13.3833 32.1537 15.7454 35.6046C16.9272 37.2944 18.3084 39.182 20.1156 39.115C21.8841 39.0417 22.5446 37.9873 24.6793 37.9873C26.7943 37.9873 27.4139 39.115 29.2579 39.0725C31.1556 39.0417 32.3512 37.3751 33.4915 35.6693C34.3406 34.4653 34.994 33.1345 35.4275 31.7264C33.1974 30.7831 31.7081 28.5388 31.7055 26.1174Z" fill="white"/>
<path d="M28.2226 15.803C29.2573 14.5609 29.7671 12.9644 29.6436 11.3525C28.0628 11.5185 26.6026 12.274 25.5539 13.4685C24.5285 14.6355 23.9948 16.204 24.0957 17.7543C25.6771 17.7705 27.2317 17.0355 28.2226 15.803Z" fill="white"/>
<path d="M1.29657 50.0623L2.19813 49.1608L1.29657 50.0623ZM151.953 50.0623L152.855 50.9639L151.953 50.0623ZM151.953 1.40546L152.855 0.503898L151.953 1.40546ZM8.125 1.50889H145.125V-1.04111H8.125V1.50889ZM151.85 8.23389V43.2339H154.4V8.23389H151.85ZM145.125 49.9589H8.125V52.5089H145.125V49.9589ZM1.4 43.2339V8.23389H-1.15V43.2339H1.4ZM8.125 49.9589C6.20334 49.9589 4.89035 49.9562 3.9058 49.8238C2.95793 49.6964 2.50754 49.4702 2.19813 49.1608L0.395012 50.9639C1.25718 51.826 2.33538 52.1856 3.56602 52.3511C4.75998 52.5116 6.27543 52.5089 8.125 52.5089V49.9589ZM-1.15 43.2339C-1.15 45.0835 -1.15271 46.5989 -0.992184 47.7929C-0.826729 49.0235 -0.467155 50.1017 0.395012 50.9639L2.19813 49.1608C1.88873 48.8513 1.66252 48.401 1.53508 47.4531C1.40271 46.4685 1.4 45.1555 1.4 43.2339H-1.15ZM151.85 43.2339C151.85 45.1555 151.847 46.4685 151.715 47.4531C151.587 48.401 151.361 48.8513 151.052 49.1608L152.855 50.9639C153.717 50.1017 154.077 49.0235 154.242 47.7929C154.403 46.5989 154.4 45.0835 154.4 43.2339H151.85ZM145.125 52.5089C146.975 52.5089 148.49 52.5116 149.684 52.3511C150.915 52.1856 151.993 51.826 152.855 50.9639L151.052 49.1608C150.742 49.4702 150.292 49.6964 149.344 49.8238C148.36 49.9562 147.047 49.9589 145.125 49.9589V52.5089ZM145.125 1.50889C147.047 1.50889 148.36 1.51159 149.344 1.64396C150.292 1.7714 150.742 1.99761 151.052 2.30702L152.855 0.503898C151.993 -0.358268 150.915 -0.717842 149.684 -0.883297C148.49 -1.04382 146.975 -1.04111 145.125 -1.04111V1.50889ZM154.4 8.23389C154.4 6.38431 154.403 4.86887 154.242 3.67491C154.077 2.44427 153.717 1.36607 152.855 0.503898L151.052 2.30702C151.361 2.61643 151.587 3.06682 151.715 4.01469C151.847 4.99924 151.85 6.31222 151.85 8.23389H154.4ZM8.125 -1.04111C6.27543 -1.04111 4.75998 -1.04382 3.56602 -0.883297C2.33538 -0.717842 1.25718 -0.358268 0.395012 0.503898L2.19813 2.30702C2.50754 1.99761 2.95793 1.7714 3.9058 1.64396C4.89035 1.51159 6.20334 1.50889 8.125 1.50889V-1.04111ZM1.4 8.23389C1.4 6.31222 1.40271 4.99924 1.53508 4.01469C1.66252 3.06682 1.88873 2.61643 2.19813 2.30702L0.395012 0.503898C-0.467155 1.36607 -0.826729 2.44427 -0.992184 3.67491C-1.15271 4.86887 -1.15 6.38431 -1.15 8.23389H1.4Z" fill="#A6A6A6"/>
<defs>
<linearGradient id="paint0_linear_1_11120" x1="0.125" y1="0.233887" x2="4.50194" y2="61.8" gradientUnits="userSpaceOnUse">
<stop stop-color="#1C2535"/>
<stop offset="1" stop-color="#04080F"/>
</linearGradient>
</defs>
</svg>
