<svg width="48" height="48" viewBox="0 0 48 48" fill="none" xmlns="http://www.w3.org/2000/svg">
<path fill-rule="evenodd" clip-rule="evenodd" d="M6 33.7402V18.5142H42V33.8622C42 40.1402 38.0483 44.0002 31.7256 44.0002H16.2547C9.99122 44.0002 6 40.0602 6 33.7402ZM15.9188 28.8202C15.0099 28.8622 14.2591 28.1402 14.2195 27.2222C14.2195 26.3022 14.9308 25.5422 15.8397 25.5002C16.7289 25.5002 17.4599 26.2022 17.4797 27.1002C17.5192 28.0222 16.8079 28.7822 15.9188 28.8202ZM24.0395 28.8202C23.1306 28.8622 22.3798 28.1402 22.3403 27.2222C22.3403 26.3022 23.0516 25.5422 23.9605 25.5002C24.8496 25.5002 25.5807 26.2022 25.6004 27.1002C25.64 28.0222 24.9286 28.7822 24.0395 28.8202ZM32.101 36.1802C31.1921 36.1602 30.461 35.4002 30.461 34.4802C30.4413 33.5602 31.1723 32.8022 32.0812 32.7822H32.101C33.0296 32.7822 33.7805 33.5422 33.7805 34.4802C33.7805 35.4202 33.0296 36.1802 32.101 36.1802ZM22.3403 34.4802C22.3798 35.4002 23.1306 36.1222 24.0395 36.0802C24.9286 36.0422 25.64 35.2822 25.6004 34.3622C25.5807 33.4622 24.8496 32.7602 23.9605 32.7602C23.0516 32.8022 22.3403 33.5602 22.3403 34.4802ZM14.1998 34.4802C14.2393 35.4002 14.9901 36.1222 15.899 36.0802C16.7881 36.0422 17.4995 35.2822 17.4599 34.3622C17.4402 33.4622 16.7091 32.7602 15.82 32.7602C14.9111 32.8022 14.1998 33.5602 14.1998 34.4802ZM30.4808 27.2022C30.4808 26.2822 31.1921 25.5422 32.101 25.5222C32.9901 25.5222 33.7014 26.2402 33.7409 27.1222C33.7607 28.0422 33.0494 28.8022 32.1603 28.8202C31.2514 28.8402 30.5006 28.1402 30.4808 27.2222V27.2022Z" fill="#0A84FF"/>
<path opacity="0.4" d="M6.00671 18.514C6.0324 17.34 6.13119 15.01 6.31692 14.26C7.26533 10.042 10.486 7.36198 15.0897 6.97998H32.9119C37.4761 7.38198 40.7362 10.08 41.6847 14.26C41.8684 14.99 41.9672 17.338 41.9929 18.514H6.00671Z" fill="#0A84FF"/>
<path d="M16.6098 13.18C17.4792 13.18 18.1312 12.522 18.1312 11.64V5.542C18.1312 4.66 17.4792 4 16.6098 4C15.7404 4 15.0884 4.66 15.0884 5.542V11.64C15.0884 12.522 15.7404 13.18 16.6098 13.18Z" fill="#0A84FF"/>
<path d="M31.3899 13.18C32.2395 13.18 32.9113 12.522 32.9113 11.64V5.542C32.9113 4.66 32.2395 4 31.3899 4C30.5206 4 29.8685 4.66 29.8685 5.542V11.64C29.8685 12.522 30.5206 13.18 31.3899 13.18Z" fill="#0A84FF"/>
</svg>
