<svg width="40" height="40" viewBox="0 0 40 40" fill="none" xmlns="http://www.w3.org/2000/svg">
<path d="M13.7968 34.0475C9.94558 34.0475 6.35562 32.9273 3.33398 30.9946C5.89945 31.1606 10.4269 30.7631 13.243 28.077C9.0067 27.8826 7.0962 24.6335 6.84701 23.245C7.20695 23.3839 8.92363 23.5505 9.89272 23.1617C5.01958 21.9399 4.27199 17.6633 4.43812 16.3581C5.35184 16.9968 6.90238 17.219 7.51153 17.1635C2.97064 13.9144 4.60425 9.02693 5.40721 7.97168C8.66592 12.4863 13.5497 15.0219 19.5916 15.163C19.4777 14.6634 19.4175 14.1432 19.4175 13.6089C19.4175 9.77474 22.5166 6.6665 26.3396 6.6665C28.337 6.6665 30.1368 7.51502 31.4003 8.87226C32.7351 8.55949 34.7439 7.8273 35.7259 7.19413C35.2309 8.97139 33.6899 10.454 32.7577 11.0035C32.7654 11.0222 32.7501 10.9847 32.7577 11.0035C33.5765 10.8796 35.7921 10.4538 36.6673 9.86002C36.2345 10.8585 34.6006 12.5186 33.2598 13.448C33.5093 24.4499 25.0917 34.0475 13.7968 34.0475Z" fill="#47ACDF"/>
</svg>
