<svg width="40" height="40" viewBox="0 0 40 40" fill="none" xmlns="http://www.w3.org/2000/svg">
<path d="M13.796 34.0475C9.94485 34.0475 6.35489 32.9273 3.33325 30.9946C5.89872 31.1606 10.4262 30.7631 13.2423 28.077C9.00596 27.8826 7.09547 24.6335 6.84627 23.245C7.20622 23.3839 8.9229 23.5505 9.89199 23.1617C5.01885 21.9399 4.27126 17.6633 4.43739 16.3581C5.35111 16.9968 6.90165 17.219 7.51079 17.1635C2.96991 13.9144 4.60352 9.02693 5.40648 7.97168C8.66519 12.4863 13.549 15.0219 19.5908 15.163C19.4769 14.6634 19.4168 14.1432 19.4168 13.6089C19.4168 9.77474 22.5159 6.6665 26.3388 6.6665C28.3363 6.6665 30.1361 7.51502 31.3996 8.87226C32.7343 8.55949 34.7431 7.8273 35.7252 7.19413C35.2302 8.97139 33.6891 10.454 32.7569 11.0035C32.7647 11.0222 32.7494 10.9847 32.7569 11.0035C33.5758 10.8796 35.7913 10.4538 36.6666 9.86002C36.2338 10.8585 34.5999 12.5186 33.2591 13.448C33.5086 24.4499 25.091 34.0475 13.796 34.0475Z" fill="#47ACDF"/>
</svg>
