<svg width="140" height="140" viewBox="0 0 140 140" fill="none" xmlns="http://www.w3.org/2000/svg">
<path d="M23.3332 46.6667H11.6665V116.667C11.6665 119.761 12.8957 122.728 15.0836 124.916C17.2715 127.104 20.239 128.333 23.3332 128.333H93.3332V116.667H23.3332V46.6667Z" fill="#0A84FF"/>
<path d="M116.667 11.6667H46.6667C43.5725 11.6667 40.605 12.8959 38.4171 15.0838C36.2292 17.2718 35 20.2392 35 23.3334V93.3334C35 96.4276 36.2292 99.3951 38.4171 101.583C40.605 103.771 43.5725 105 46.6667 105H116.667C119.761 105 122.728 103.771 124.916 101.583C127.104 99.3951 128.333 96.4276 128.333 93.3334V23.3334C128.333 20.2392 127.104 17.2718 124.916 15.0838C122.728 12.8959 119.761 11.6667 116.667 11.6667ZM64.1667 81.6667V35.0001L105 58.3334L64.1667 81.6667Z" fill="#0A84FF"/>
</svg>
