<svg width="48" height="48" viewBox="0 0 48 48" fill="none" xmlns="http://www.w3.org/2000/svg">
<path fill-rule="evenodd" clip-rule="evenodd" d="M6 33.7397V18.5137H42V33.8617C42 40.1397 38.0483 43.9997 31.7256 43.9997H16.2547C9.99122 43.9997 6 40.0597 6 33.7397ZM15.9188 28.8197C15.0099 28.8617 14.2591 28.1397 14.2195 27.2217C14.2195 26.3017 14.9308 25.5417 15.8397 25.4997C16.7289 25.4997 17.4599 26.2017 17.4797 27.0997C17.5192 28.0217 16.8079 28.7817 15.9188 28.8197ZM24.0395 28.8197C23.1306 28.8617 22.3798 28.1397 22.3403 27.2217C22.3403 26.3017 23.0516 25.5417 23.9605 25.4997C24.8496 25.4997 25.5807 26.2017 25.6004 27.0997C25.64 28.0217 24.9286 28.7817 24.0395 28.8197ZM32.101 36.1797C31.1921 36.1597 30.461 35.3997 30.461 34.4797C30.4413 33.5597 31.1723 32.8017 32.0812 32.7817H32.101C33.0296 32.7817 33.7805 33.5417 33.7805 34.4797C33.7805 35.4197 33.0296 36.1797 32.101 36.1797ZM22.3403 34.4797C22.3798 35.3997 23.1306 36.1217 24.0395 36.0797C24.9286 36.0417 25.64 35.2817 25.6004 34.3617C25.5807 33.4617 24.8496 32.7597 23.9605 32.7597C23.0516 32.8017 22.3403 33.5597 22.3403 34.4797ZM14.1998 34.4797C14.2393 35.3997 14.9901 36.1217 15.899 36.0797C16.7881 36.0417 17.4995 35.2817 17.4599 34.3617C17.4402 33.4617 16.7091 32.7597 15.82 32.7597C14.9111 32.8017 14.1998 33.5597 14.1998 34.4797ZM30.4808 27.2017C30.4808 26.2817 31.1921 25.5417 32.101 25.5217C32.9901 25.5217 33.7014 26.2397 33.7409 27.1217C33.7607 28.0417 33.0494 28.8017 32.1603 28.8197C31.2514 28.8397 30.5006 28.1397 30.4808 27.2217V27.2017Z" fill="#0A84FF"/>
<path opacity="0.4" d="M6.00684 18.5135C6.03252 17.3395 6.13131 15.0095 6.31704 14.2595C7.26545 10.0415 10.4861 7.36149 15.0898 6.97949H32.912C37.4762 7.38149 40.7364 10.0795 41.6848 14.2595C41.8685 14.9895 41.9673 17.3375 41.993 18.5135H6.00684Z" fill="#0A84FF"/>
<path d="M16.6093 13.18C17.4787 13.18 18.1307 12.522 18.1307 11.64V5.542C18.1307 4.66 17.4787 4 16.6093 4C15.7399 4 15.0879 4.66 15.0879 5.542V11.64C15.0879 12.522 15.7399 13.18 16.6093 13.18Z" fill="#0A84FF"/>
<path d="M31.3896 13.18C32.2392 13.18 32.911 12.522 32.911 11.64V5.542C32.911 4.66 32.2392 4 31.3896 4C30.5202 4 29.8682 4.66 29.8682 5.542V11.64C29.8682 12.522 30.5202 13.18 31.3896 13.18Z" fill="#0A84FF"/>
</svg>
