<svg width="16" height="17" viewBox="0 0 16 17" fill="none" xmlns="http://www.w3.org/2000/svg">
<path fill-rule="evenodd" clip-rule="evenodd" d="M2 11.7467V6.67139H14V11.7874C14 13.8801 12.6828 15.1667 10.5752 15.1667H5.41822C3.33041 15.1667 2 13.8534 2 11.7467ZM5.30626 10.1067C5.00329 10.1207 4.75302 9.88005 4.73985 9.57405C4.73985 9.26739 4.97695 9.01405 5.27991 9.00005C5.57629 9.00005 5.81998 9.23405 5.82656 9.53339C5.83974 9.84072 5.60263 10.0941 5.30626 10.1067ZM8.01317 10.1067C7.71021 10.1207 7.45993 9.88005 7.44676 9.57405C7.44676 9.26739 7.68386 9.01405 7.98683 9.00005C8.28321 9.00005 8.52689 9.23405 8.53348 9.53339C8.54665 9.84072 8.30955 10.0941 8.01317 10.1067ZM10.7003 12.5601C10.3974 12.5534 10.1537 12.3001 10.1537 11.9934C10.1471 11.6867 10.3908 11.4341 10.6937 11.4274H10.7003C11.0099 11.4274 11.2602 11.6807 11.2602 11.9934C11.2602 12.3067 11.0099 12.5601 10.7003 12.5601ZM7.44676 11.9934C7.45993 12.3001 7.71021 12.5407 8.01317 12.5267C8.30955 12.5141 8.54665 12.2607 8.53348 11.9541C8.52689 11.6541 8.28321 11.4201 7.98683 11.4201C7.68386 11.4341 7.44676 11.6867 7.44676 11.9934ZM4.73326 11.9934C4.74643 12.3001 4.99671 12.5407 5.29967 12.5267C5.59605 12.5141 5.83315 12.2607 5.81998 11.9541C5.81339 11.6541 5.5697 11.4201 5.27333 11.4201C4.97036 11.4341 4.73326 11.6867 4.73326 11.9934ZM10.1603 9.56739C10.1603 9.26072 10.3974 9.01405 10.7003 9.00739C10.9967 9.00739 11.2338 9.24672 11.247 9.54072C11.2536 9.84739 11.0165 10.1007 10.7201 10.1067C10.4171 10.1134 10.1668 9.88005 10.1603 9.57405V9.56739Z" fill="#0A84FF"/>
<path opacity="0.4" d="M2.00195 6.67133C2.01052 6.27999 2.04345 5.50333 2.10536 5.25333C2.42149 3.84733 3.49504 2.95399 5.02961 2.82666H10.9703C12.4917 2.96066 13.5785 3.85999 13.8946 5.25333C13.9558 5.49666 13.9888 6.27933 13.9973 6.67133H2.00195Z" fill="#0A84FF"/>
<path d="M5.53643 4.8935C5.82622 4.8935 6.04357 4.67416 6.04357 4.38016V2.3475C6.04357 2.0535 5.82622 1.8335 5.53643 1.8335C5.24664 1.8335 5.0293 2.0535 5.0293 2.3475V4.38016C5.0293 4.67416 5.24664 4.8935 5.53643 4.8935Z" fill="#0A84FF"/>
<path d="M10.4642 4.8935C10.7474 4.8935 10.9713 4.67416 10.9713 4.38016V2.3475C10.9713 2.0535 10.7474 1.8335 10.4642 1.8335C10.1744 1.8335 9.95703 2.0535 9.95703 2.3475V4.38016C9.95703 4.67416 10.1744 4.8935 10.4642 4.8935Z" fill="#0A84FF"/>
</svg>
