<svg width="24" height="27" viewBox="0 0 24 27" fill="none" xmlns="http://www.w3.org/2000/svg">
<g filter="url(#filter0_d_425_1591)">
<path fill-rule="evenodd" clip-rule="evenodd" d="M4.5 14.058V7.71387H19.5V14.1089C19.5 16.7247 17.8535 18.333 15.219 18.333H8.77278C6.16301 18.333 4.5 16.6914 4.5 14.058ZM8.63282 12.008C8.25412 12.0255 7.94127 11.7247 7.92481 11.3422C7.92481 10.9589 8.22119 10.6422 8.59989 10.6247C8.97036 10.6247 9.27497 10.9172 9.28321 11.2914C9.29967 11.6755 9.00329 11.9922 8.63282 12.008ZM12.0165 12.008C11.6378 12.0255 11.3249 11.7247 11.3085 11.3422C11.3085 10.9589 11.6048 10.6422 11.9835 10.6247C12.354 10.6247 12.6586 10.9172 12.6669 11.2914C12.6833 11.6755 12.3869 11.9922 12.0165 12.008ZM15.3754 15.0747C14.9967 15.0664 14.6921 14.7497 14.6921 14.3664C14.6839 13.983 14.9885 13.6672 15.3672 13.6589H15.3754C15.7623 13.6589 16.0752 13.9755 16.0752 14.3664C16.0752 14.758 15.7623 15.0747 15.3754 15.0747ZM11.3085 14.3664C11.3249 14.7497 11.6378 15.0505 12.0165 15.033C12.3869 15.0172 12.6833 14.7005 12.6669 14.3172C12.6586 13.9422 12.354 13.6497 11.9835 13.6497C11.6048 13.6672 11.3085 13.983 11.3085 14.3664ZM7.91658 14.3664C7.93304 14.7497 8.24588 15.0505 8.62459 15.033C8.99506 15.0172 9.29144 14.7005 9.27497 14.3172C9.26674 13.9422 8.96213 13.6497 8.59166 13.6497C8.21295 13.6672 7.91658 13.983 7.91658 14.3664ZM14.7003 11.3339C14.7003 10.9505 14.9967 10.6422 15.3754 10.6339C15.7459 10.6339 16.0423 10.933 16.0587 11.3005C16.067 11.6839 15.7706 12.0005 15.4001 12.008C15.0214 12.0164 14.7086 11.7247 14.7003 11.3422V11.3339Z" fill="#0A84FF"/>
<path opacity="0.4" d="M4.50195 7.71404C4.51266 7.22487 4.55382 6.25404 4.63121 5.94154C5.02638 4.18404 6.36831 3.06737 8.28653 2.9082H15.7124C17.6142 3.0757 18.9726 4.19987 19.3678 5.94154C19.4443 6.2457 19.4855 7.22404 19.4962 7.71404H4.50195Z" fill="#0A84FF"/>
<path d="M8.92103 5.4915C9.28327 5.4915 9.55495 5.21734 9.55495 4.84984V2.309C9.55495 1.9415 9.28327 1.6665 8.92103 1.6665C8.55879 1.6665 8.28711 1.9415 8.28711 2.309V4.84984C8.28711 5.21734 8.55879 5.4915 8.92103 5.4915" fill="#0A84FF"/>
<path d="M15.0792 5.4915C15.4332 5.4915 15.7132 5.21734 15.7132 4.84984V2.309C15.7132 1.9415 15.4332 1.6665 15.0792 1.6665C14.717 1.6665 14.4453 1.9415 14.4453 2.309V4.84984C14.4453 5.21734 14.717 5.4915 15.0792 5.4915" fill="#0A84FF"/>
</g>
<defs>
<filter id="filter0_d_425_1591" x="-2" y="0" width="28" height="28" filterUnits="userSpaceOnUse" color-interpolation-filters="sRGB">
<feFlood flood-opacity="0" result="BackgroundImageFix"/>
<feColorMatrix in="SourceAlpha" type="matrix" values="0 0 0 0 0 0 0 0 0 0 0 0 0 0 0 0 0 0 127 0" result="hardAlpha"/>
<feOffset dy="4"/>
<feGaussianBlur stdDeviation="2"/>
<feComposite in2="hardAlpha" operator="out"/>
<feColorMatrix type="matrix" values="0 0 0 0 0 0 0 0 0 0 0 0 0 0 0 0 0 0 0.25 0"/>
<feBlend mode="normal" in2="BackgroundImageFix" result="effect1_dropShadow_425_1591"/>
<feBlend mode="normal" in="SourceGraphic" in2="effect1_dropShadow_425_1591" result="shape"/>
</filter>
</defs>
</svg>
