<svg width="112" height="112" viewBox="0 0 112 112" fill="none" xmlns="http://www.w3.org/2000/svg">
<rect width="112" height="112" rx="56" fill="white"/>
<path fill-rule="evenodd" clip-rule="evenodd" d="M55.522 73.7075C51.1808 71.0358 47.1422 67.8913 43.4786 64.3303C40.9029 61.7659 38.942 58.6395 37.7462 55.1908C35.5943 48.5006 38.1079 40.8417 45.1422 38.575C48.8392 37.3849 52.8769 38.0651 55.9922 40.403C59.1087 38.068 63.1449 37.388 66.8421 38.575C73.8765 40.8417 76.4082 48.5006 74.2563 55.1908C73.0604 58.6395 71.0996 61.7659 68.5239 64.3303C64.8602 67.8913 60.8217 71.0358 56.4804 73.7075L56.0103 74L55.522 73.7075Z" fill="#FD212F"/>
<path d="M63.4786 46.106C65.6093 46.7866 67.1231 48.6994 67.3123 50.95" stroke="white" stroke-width="1.5" stroke-linecap="round" stroke-linejoin="round"/>
</svg>
