<svg width="48" height="48" viewBox="0 0 48 48" fill="none" xmlns="http://www.w3.org/2000/svg">
<path d="M24 44C35.0457 44 44 35.0457 44 24C44 12.9543 35.0457 4 24 4C12.9543 4 4 12.9543 4 24C4 35.0457 12.9543 44 24 44Z" stroke="#FF881A" stroke-width="2" stroke-linecap="round" stroke-linejoin="round"/>
<path d="M18.1801 18.0002C18.6503 16.6635 19.5784 15.5364 20.8 14.8184C22.0216 14.1005 23.4578 13.838 24.8544 14.0776C26.251 14.3171 27.5177 15.0432 28.4302 16.1272C29.3427 17.2112 29.8422 18.5832 29.8401 20.0002C29.8401 24.0002 23.8401 26.0002 23.8401 26.0002" stroke="#FF881A" stroke-width="2" stroke-linecap="round" stroke-linejoin="round"/>
<path d="M24 34H24.02" stroke="#FF881A" stroke-width="2" stroke-linecap="round" stroke-linejoin="round"/>
</svg>
