<svg width="94" height="93" viewBox="0 0 94 93" fill="none" xmlns="http://www.w3.org/2000/svg">
<path d="M85.7495 56.972V62.3332C85.7495 63.2229 85.7107 64.1203 85.633 65.0099C84.5459 77.2514 76.0426 85.2504 63.7731 85.2504H30.226C24.0135 85.2504 18.7718 83.2341 15.0055 79.5784C13.5301 78.2226 12.2876 76.6298 11.3169 74.8038C12.5982 73.246 14.0348 71.5405 15.4326 69.8311C17.8011 66.9951 20.0919 64.1941 21.5286 62.3721C23.6641 59.7303 29.2941 52.7763 37.0985 56.0397C38.6904 56.7001 40.0882 57.6325 41.3695 58.4483C44.5145 60.5462 45.8347 61.1678 48.0479 59.9634C50.494 58.6426 52.0859 56.0397 53.7555 53.3202C54.6486 51.8789 55.5416 50.4842 56.5123 49.2022C60.7445 43.6856 67.2676 42.2093 72.7034 45.4727C75.4214 47.1043 77.751 49.1633 79.9254 51.2573C80.3913 51.7235 80.8572 52.1547 81.2843 52.5821C81.8668 53.1648 83.8081 55.1073 85.7495 56.972Z" fill="#FF881A"/>
<path opacity="0.4" d="M63.8124 7.75H30.2265C17.0639 7.75 8.25 16.9573 8.25 30.6672V62.3332C8.25 67.1078 9.33717 71.3462 11.3174 74.8038C12.5987 73.246 14.0353 71.5405 15.4331 69.8272C17.8016 66.9951 20.0924 64.1941 21.5291 62.3721C23.6646 59.7303 29.2946 52.7763 37.0989 56.0396C38.6909 56.7001 40.0887 57.6325 41.37 58.4483C44.515 60.5461 45.8352 61.1677 48.0483 59.9595C50.4945 58.6425 52.0864 56.0396 53.756 53.3163C54.649 51.8789 55.5421 50.4842 56.5128 49.2022C60.745 43.6856 67.268 42.2093 72.7039 45.4726C75.4218 47.1043 77.7515 49.1633 79.9258 51.2573C80.3918 51.7235 80.8577 52.1547 81.2848 52.582C81.8672 53.1609 83.8086 55.1034 85.75 56.972V30.6672C85.75 16.9573 76.9361 7.75 63.8124 7.75Z" fill="#FF881A"/>
<path d="M44.8859 34.0877C44.8859 39.546 40.3392 44.0914 34.8839 44.0914C29.4325 44.0914 24.8857 39.546 24.8857 34.0877C24.8857 28.6332 29.4325 24.084 34.8839 24.084C40.3392 24.084 44.8859 28.6332 44.8859 34.0877Z" fill="#FF881A"/>
</svg>
