<svg width="20" height="20" viewBox="0 0 20 20" fill="none" xmlns="http://www.w3.org/2000/svg">
<path fill-rule="evenodd" clip-rule="evenodd" d="M7.10904 2.44715C8.92975 1.38923 11.1677 1.40772 12.9713 2.49558C14.7572 3.6056 15.8427 5.58665 15.8325 7.71771C15.791 9.83478 14.6271 11.8248 13.1722 13.3632C12.3325 14.2552 11.3932 15.0439 10.3734 15.7132C10.2684 15.7739 10.1533 15.8146 10.0339 15.8332C9.91901 15.8283 9.80711 15.7943 9.70831 15.7344C8.15137 14.7286 6.78546 13.4449 5.67629 11.9448C4.74817 10.6926 4.22088 9.17984 4.16602 7.61185C4.16481 5.47671 5.28832 3.50506 7.10904 2.44715ZM8.16115 8.49549C8.46742 9.25053 9.19033 9.74304 9.99235 9.74304C10.5178 9.74682 11.0228 9.53636 11.395 9.15857C11.7672 8.78077 11.9756 8.26704 11.9737 7.73182C11.9765 6.91487 11.4956 6.17676 10.7554 5.86215C10.0152 5.54753 9.16189 5.71846 8.59378 6.29513C8.02568 6.87179 7.85488 7.74044 8.16115 8.49549Z" fill="#0A84FF"/>
<ellipse opacity="0.4" cx="9.9987" cy="17.4998" rx="4.16667" ry="0.833334" fill="#0A84FF"/>
</svg>
