<svg width="12" height="13" viewBox="0 0 12 13" fill="none" xmlns="http://www.w3.org/2000/svg">
<path fill-rule="evenodd" clip-rule="evenodd" d="M4.26581 1.96839C5.35824 1.33364 6.70101 1.34473 7.78319 1.99745C8.85473 2.66346 9.50598 3.85209 9.49992 5.13072C9.47498 6.40097 8.77665 7.595 7.90374 8.51805C7.39992 9.0532 6.83631 9.52641 6.22442 9.92802C6.1614 9.96446 6.09238 9.98885 6.02074 10C5.9518 9.99706 5.88466 9.97669 5.82538 9.94072C4.89121 9.33728 4.07167 8.56702 3.40617 7.66698C2.84929 6.91568 2.53292 6.008 2.5 5.06721C2.49928 3.78612 3.17338 2.60313 4.26581 1.96839ZM4.89708 5.59739C5.08084 6.05042 5.51459 6.34592 5.9958 6.34592C6.31105 6.34819 6.61409 6.22191 6.83741 5.99524C7.06072 5.76856 7.18574 5.46032 7.18462 5.13919C7.18631 4.64902 6.89773 4.20616 6.45363 4.01739C6.00954 3.82862 5.49752 3.93117 5.15666 4.27717C4.8158 4.62317 4.71332 5.14436 4.89708 5.59739Z" fill="#FF881A"/>
<ellipse opacity="0.4" cx="6" cy="11" rx="2.5" ry="0.5" fill="#FF881A"/>
</svg>
