<svg width="24" height="24" viewBox="0 0 24 24" fill="none" xmlns="http://www.w3.org/2000/svg">
<path d="M18.6364 7.21293C18.8701 5.68888 18.6364 4.67285 17.8182 3.73497C16.9222 2.67986 15.2859 2.25 13.1822 2.25H7.14363C6.71509 2.25 6.36446 2.56263 6.28655 2.99248L3.75425 19.0145C3.71529 19.3272 3.94904 19.6007 4.26071 19.6007H8.00072L7.72801 21.242C7.68905 21.5155 7.88384 21.75 8.19551 21.75H11.3511C11.7407 21.75 12.0524 21.4765 12.0913 21.1247L12.7536 16.9825C12.7926 16.6308 13.1432 16.3572 13.4939 16.3572H13.9614C17.0001 16.3572 19.4155 15.1067 20.1168 11.5115C20.3895 10.0266 20.2726 8.73697 19.4934 7.87725C19.2597 7.60371 18.987 7.40832 18.6364 7.21293Z" fill="#009CDE"/>
<path d="M18.6364 7.21293C18.8701 5.68888 18.6364 4.67285 17.8182 3.73497C16.9222 2.67986 15.2859 2.25 13.1822 2.25H7.14363C6.71509 2.25 6.36446 2.56263 6.28654 2.99248L3.75425 19.0145C3.71529 19.3272 3.94904 19.6007 4.26071 19.6007H8.00071L8.89676 13.8171C8.97468 13.3873 9.3253 13.0746 9.75384 13.0746H11.5459C15.0522 13.0746 17.7793 11.6678 18.5584 7.52555C18.5974 7.44739 18.5974 7.33016 18.6364 7.21293Z" fill="#012169"/>
<path d="M9.94864 7.252C9.98759 6.97846 10.3382 6.62675 10.6888 6.62675H15.4418C15.9872 6.62675 16.5326 6.66583 17.0001 6.74399C17.4286 6.82214 18.2078 7.01753 18.5974 7.252C18.8312 5.72796 18.5974 4.71192 17.7793 3.77405C16.9222 2.67986 15.2859 2.25 13.1822 2.25H7.14363C6.71509 2.25 6.36446 2.56263 6.28654 2.99248L3.75425 19.0145C3.71529 19.3272 3.94904 19.6007 4.26071 19.6007H8.00071L9.94864 7.252Z" fill="#003087"/>
</svg>
