<svg width="173" height="52" viewBox="0 0 173 52" fill="none" xmlns="http://www.w3.org/2000/svg">
<path d="M0 8.23389C0 4.46265 0 2.57703 1.17157 1.40546C2.34315 0.233887 4.22876 0.233887 8 0.233887H164.125C167.896 0.233887 169.782 0.233887 170.953 1.40546C172.125 2.57703 172.125 4.46265 172.125 8.23389V43.2339C172.125 47.0051 172.125 48.8907 170.953 50.0623C169.782 51.2339 167.896 51.2339 164.125 51.2339H8C4.22876 51.2339 2.34315 51.2339 1.17157 50.0623C0 48.8907 0 47.0051 0 43.2339V8.23389Z" fill="url(#paint0_linear_1_11119)"/>
<path d="M86.8734 27.9666C83.8746 27.9666 81.4304 30.2476 81.4304 33.3892C81.4304 36.5116 83.8746 38.8117 86.8734 38.8117C89.8735 38.8117 92.3176 36.5116 92.3176 33.3892C92.3164 30.2476 89.8722 27.9666 86.8734 27.9666ZM86.8734 36.6774C85.2299 36.6774 83.8134 35.3221 83.8134 33.3904C83.8134 31.4384 85.2312 30.1035 86.8734 30.1035C88.5169 30.1035 89.9334 31.4384 89.9334 33.3904C89.9334 35.3208 88.5169 36.6774 86.8734 36.6774ZM74.9981 27.9666C71.9993 27.9666 69.5551 30.2476 69.5551 33.3892C69.5551 36.5116 71.9993 38.8117 74.9981 38.8117C77.9981 38.8117 80.4423 36.5116 80.4423 33.3892C80.4423 30.2476 77.9981 27.9666 74.9981 27.9666ZM74.9981 36.6774C73.3546 36.6774 71.938 35.3221 71.938 33.3904C71.938 31.4384 73.3559 30.1035 74.9981 30.1035C76.6415 30.1035 78.0581 31.4384 78.0581 33.3904C78.0593 35.3208 76.6415 36.6774 74.9981 36.6774ZM60.8736 29.6317V31.9318H66.3791C66.2146 33.226 65.7836 34.1707 65.1257 34.8274C64.325 35.6281 63.0717 36.5116 60.8736 36.5116C57.4847 36.5116 54.8352 33.7793 54.8352 30.3904C54.8352 27.0014 57.4847 24.2691 60.8736 24.2691C62.702 24.2691 64.0369 24.9882 65.0225 25.9126L66.6455 24.2895C65.2685 22.975 63.4415 21.969 60.8736 21.969C56.2313 21.969 52.3286 25.7481 52.3286 30.3904C52.3286 35.0326 56.2313 38.8117 60.8736 38.8117C63.379 38.8117 65.2698 37.9894 66.7475 36.4492C68.2673 34.9294 68.7404 32.7925 68.7404 31.0674C68.7404 30.5344 68.6996 30.041 68.6167 29.6305H60.8736V29.6317ZM118.641 31.418C118.19 30.2068 116.813 27.9666 113.999 27.9666C111.206 27.9666 108.884 30.1647 108.884 33.3892C108.884 36.4288 111.185 38.8117 114.266 38.8117C116.75 38.8117 118.189 37.2919 118.785 36.4084L116.937 35.1754C116.321 36.0794 115.478 36.6748 114.266 36.6748C113.054 36.6748 112.191 36.1202 111.636 35.0314L118.887 32.0326L118.641 31.418ZM111.246 33.226C111.185 31.1299 112.869 30.0627 114.082 30.0627C115.027 30.0627 115.827 30.5357 116.095 31.2127L111.246 33.226ZM105.352 38.4841H107.734V22.5453H105.352V38.4841ZM101.448 29.1791H101.366C100.832 28.5416 99.8045 27.9666 98.5116 27.9666C95.7997 27.9666 93.3147 30.3496 93.3147 33.4108C93.3147 36.4504 95.7997 38.813 98.5116 38.813C99.8057 38.813 100.832 38.238 101.366 37.5814H101.448V38.3617C101.448 40.4361 100.339 41.5453 98.5524 41.5453C97.0938 41.5453 96.1898 40.4986 95.8201 39.615L93.7457 40.4782C94.3411 41.9151 95.9221 43.6822 98.5524 43.6822C101.346 43.6822 103.708 42.0388 103.708 38.0327V28.2968H101.449V29.1791H101.448ZM98.7169 36.6774C97.0734 36.6774 95.6977 35.3004 95.6977 33.4108C95.6977 31.4996 97.0734 30.1035 98.7169 30.1035C100.339 30.1035 101.612 31.4996 101.612 33.4108C101.612 35.3004 100.339 36.6774 98.7169 36.6774ZM129.803 22.5453H124.102V38.4841H126.48V32.4457H129.801C132.438 32.4457 135.031 30.537 135.031 27.4961C135.031 24.4552 132.439 22.5453 129.803 22.5453ZM129.864 30.2272H126.48V24.7638H129.864C131.642 24.7638 132.652 26.2364 132.652 27.4961C132.652 28.7303 131.642 30.2272 129.864 30.2272ZM144.567 27.9385C142.845 27.9385 141.061 28.6972 140.323 30.3789L142.434 31.2599C142.885 30.3789 143.727 30.0907 144.608 30.0907C145.838 30.0907 147.089 30.829 147.109 32.1409V32.3054C146.679 32.0593 145.755 31.6909 144.628 31.6909C142.352 31.6909 140.035 32.9416 140.035 35.2787C140.035 37.4118 141.901 38.785 143.992 38.785C145.591 38.785 146.473 38.0671 147.027 37.2256H147.108V38.456H149.406V32.3449C149.407 29.517 147.293 27.9385 144.567 27.9385ZM144.279 36.6736C143.501 36.6736 142.414 36.2834 142.414 35.3195C142.414 34.0891 143.768 33.6174 144.937 33.6174C145.981 33.6174 146.475 33.8431 147.109 34.1503C146.925 35.6281 145.653 36.6736 144.279 36.6736ZM157.772 28.2866L155.045 35.1971H154.963L152.133 28.2866H149.57L153.815 37.9447L151.395 43.3176H153.876L160.418 28.2866H157.772ZM136.345 38.4841H138.723V22.5453H136.345V38.4841Z" fill="white"/>
<path d="M60.458 13.2936C60.458 14.3621 60.1418 15.2125 59.5082 15.8475C58.7891 16.6023 57.8507 16.9797 56.6981 16.9797C55.5939 16.9797 54.6542 16.5972 53.8829 15.8322C53.1102 15.0659 52.7239 14.1173 52.7239 12.9851C52.7239 11.8516 53.1102 10.903 53.8829 10.138C54.6542 9.37175 55.5939 8.98925 56.6981 8.98925C57.2463 8.98925 57.7703 9.09635 58.2676 9.30927C58.7661 9.52347 59.1652 9.8078 59.4635 10.1635L58.7916 10.8367C58.2854 10.2311 57.588 9.92892 56.6968 9.92892C55.891 9.92892 55.1948 10.212 54.607 10.7781C54.0193 11.3442 53.726 12.0798 53.726 12.9838C53.726 13.8878 54.0193 14.6235 54.607 15.1896C55.1948 15.7557 55.891 16.0387 56.6968 16.0387C57.551 16.0387 58.2638 15.7544 58.8337 15.1845C59.2034 14.8134 59.4176 14.2971 59.475 13.6353H56.6968V12.7161H60.4032C60.4415 12.9162 60.458 13.1088 60.458 13.2936Z" fill="white"/>
<path d="M66.3359 10.0986H62.8526V12.5236H65.9942V13.4429H62.8526V15.8679H66.3359V16.8089H61.8696V9.15889H66.3359V10.0986Z" fill="white"/>
<path d="M70.4808 16.8089H69.4978V10.0986H67.3609V9.15889H72.6177V10.0986H70.4808V16.8089Z" fill="white"/>
<path d="M76.4209 16.8089V9.15889H77.404V16.8089H76.4209Z" fill="white"/>
<path d="M81.7634 16.8089H80.7804V10.0986H78.6435V9.15889H83.9003V10.0986H81.7634V16.8089Z" fill="white"/>
<path d="M93.8514 15.8208C93.0991 16.5934 92.1646 16.9797 91.0464 16.9797C89.9282 16.9797 88.9936 16.5934 88.2427 15.8208C87.4904 15.0481 87.1156 14.1021 87.1156 12.9839C87.1156 11.8657 87.4904 10.9197 88.2427 10.147C88.9936 9.37436 89.9282 8.98676 91.0464 8.98676C92.1582 8.98676 93.0915 9.37563 93.8463 10.1521C94.6011 10.9286 94.9785 11.8721 94.9785 12.9839C94.9785 14.1021 94.6024 15.0481 93.8514 15.8208ZM88.9681 15.1794C89.5342 15.7532 90.2266 16.0388 91.0464 16.0388C91.8662 16.0388 92.5598 15.7519 93.1246 15.1794C93.6907 14.6057 93.9751 13.8738 93.9751 12.9839C93.9751 12.0939 93.6907 11.3621 93.1246 10.7883C92.5598 10.2146 91.8662 9.92898 91.0464 9.92898C90.2266 9.92898 89.5342 10.2159 88.9681 10.7883C88.4033 11.3621 88.119 12.0939 88.119 12.9839C88.119 13.8738 88.4033 14.6057 88.9681 15.1794Z" fill="white"/>
<path d="M96.3581 16.8089V9.15889H97.554L101.272 15.1093H101.314L101.272 13.6354V9.15889H102.255V16.8089H101.229L97.3386 10.569H97.2965L97.3386 12.0429V16.8089H96.3581Z" fill="white"/>
<path d="M60.458 13.2936C60.458 14.3621 60.1418 15.2125 59.5082 15.8475C58.7891 16.6023 57.8507 16.9797 56.6981 16.9797C55.5939 16.9797 54.6542 16.5972 53.8829 15.8322C53.1102 15.0659 52.7239 14.1173 52.7239 12.9851C52.7239 11.8516 53.1102 10.903 53.8829 10.138C54.6542 9.37175 55.5939 8.98925 56.6981 8.98925C57.2463 8.98925 57.7703 9.09635 58.2676 9.30927C58.7661 9.52347 59.1652 9.8078 59.4635 10.1635L58.7916 10.8367C58.2854 10.2311 57.588 9.92892 56.6968 9.92892C55.891 9.92892 55.1948 10.212 54.607 10.7781C54.0193 11.3442 53.726 12.0798 53.726 12.9838C53.726 13.8878 54.0193 14.6235 54.607 15.1896C55.1948 15.7557 55.891 16.0387 56.6968 16.0387C57.551 16.0387 58.2638 15.7544 58.8337 15.1845C59.2034 14.8134 59.4176 14.2971 59.475 13.6353H56.6968V12.7161H60.4032C60.4415 12.9162 60.458 13.1088 60.458 13.2936Z" stroke="white" stroke-width="0.255" stroke-miterlimit="10"/>
<path d="M66.3359 10.0986H62.8526V12.5236H65.9942V13.4429H62.8526V15.8679H66.3359V16.8089H61.8696V9.15889H66.3359V10.0986Z" stroke="white" stroke-width="0.255" stroke-miterlimit="10"/>
<path d="M70.4808 16.8089H69.4978V10.0986H67.3609V9.15889H72.6177V10.0986H70.4808V16.8089Z" stroke="white" stroke-width="0.255" stroke-miterlimit="10"/>
<path d="M76.4209 16.8089V9.15889H77.404V16.8089H76.4209Z" stroke="white" stroke-width="0.255" stroke-miterlimit="10"/>
<path d="M81.7634 16.8089H80.7804V10.0986H78.6435V9.15889H83.9003V10.0986H81.7634V16.8089Z" stroke="white" stroke-width="0.255" stroke-miterlimit="10"/>
<path d="M93.8514 15.8208C93.0991 16.5934 92.1646 16.9797 91.0464 16.9797C89.9282 16.9797 88.9936 16.5934 88.2427 15.8208C87.4904 15.0481 87.1156 14.1021 87.1156 12.9839C87.1156 11.8657 87.4904 10.9197 88.2427 10.147C88.9936 9.37436 89.9282 8.98676 91.0464 8.98676C92.1582 8.98676 93.0915 9.37563 93.8463 10.1521C94.6011 10.9286 94.9785 11.8721 94.9785 12.9839C94.9785 14.1021 94.6024 15.0481 93.8514 15.8208ZM88.9681 15.1794C89.5342 15.7532 90.2266 16.0388 91.0464 16.0388C91.8662 16.0388 92.5598 15.7519 93.1246 15.1794C93.6907 14.6057 93.9751 13.8738 93.9751 12.9839C93.9751 12.0939 93.6907 11.3621 93.1246 10.7883C92.5598 10.2146 91.8662 9.92898 91.0464 9.92898C90.2266 9.92898 89.5342 10.2159 88.9681 10.7883C88.4033 11.3621 88.119 12.0939 88.119 12.9839C88.119 13.8738 88.4033 14.6057 88.9681 15.1794Z" stroke="white" stroke-width="0.255" stroke-miterlimit="10"/>
<path d="M96.3581 16.8089V9.15889H97.554L101.272 15.1093H101.314L101.272 13.6354V9.15889H102.255V16.8089H101.229L97.3386 10.569H97.2965L97.3386 12.0429V16.8089H96.3581Z" stroke="white" stroke-width="0.255" stroke-miterlimit="10"/>
<g filter="url(#filter0_ii_1_11119)">
<path d="M13.3059 9.84485C12.9349 10.2375 12.7156 10.847 12.7156 11.6362V39.8341C12.7156 40.6246 12.9349 41.2328 13.3059 41.6255L13.4003 41.7173L29.1962 25.9213V25.7352V25.549L13.4003 9.75177L13.3059 9.84485Z" fill="url(#paint1_linear_1_11119)"/>
<path d="M34.4608 31.1883L29.1963 25.9213V25.7351V25.549L34.462 20.2832L34.5806 20.3508L40.8192 23.8953C42.6004 24.9076 42.6004 26.5639 40.8192 27.5775L34.5806 31.122L34.4608 31.1883Z" fill="url(#paint2_linear_1_11119)"/>
<g filter="url(#filter1_i_1_11119)">
<path d="M34.5806 31.1207L29.195 25.7351L13.306 41.6254C13.8925 42.2476 14.8627 42.3241 15.9554 41.7045L34.5806 31.1207Z" fill="url(#paint3_linear_1_11119)"/>
</g>
<path d="M34.5806 20.3496L15.9554 9.76706C14.8627 9.14613 13.8925 9.22391 13.306 9.84611L29.1963 25.7364L34.5806 20.3496Z" fill="url(#paint4_linear_1_11119)"/>
</g>
<path d="M1.17157 50.0623L2.07313 49.1608L1.17157 50.0623ZM170.953 50.0623L171.855 50.9639L170.953 50.0623ZM170.953 1.40546L171.855 0.503898L170.953 1.40546ZM8 1.50889H164.125V-1.04111H8V1.50889ZM170.85 8.23389V43.2339H173.4V8.23389H170.85ZM164.125 49.9589H8V52.5089H164.125V49.9589ZM1.275 43.2339V8.23389H-1.275V43.2339H1.275ZM8 49.9589C6.07834 49.9589 4.76535 49.9562 3.7808 49.8238C2.83293 49.6964 2.38254 49.4702 2.07313 49.1608L0.270012 50.9639C1.13218 51.826 2.21038 52.1856 3.44102 52.3511C4.63498 52.5116 6.15043 52.5089 8 52.5089V49.9589ZM-1.275 43.2339C-1.275 45.0835 -1.27771 46.5989 -1.11718 47.7929C-0.951729 49.0235 -0.592155 50.1017 0.270012 50.9639L2.07313 49.1608C1.76373 48.8513 1.53752 48.401 1.41008 47.4531C1.27771 46.4685 1.275 45.1555 1.275 43.2339H-1.275ZM170.85 43.2339C170.85 45.1555 170.847 46.4685 170.715 47.4531C170.587 48.401 170.361 48.8513 170.052 49.1608L171.855 50.9639C172.717 50.1017 173.077 49.0235 173.242 47.7929C173.403 46.5989 173.4 45.0835 173.4 43.2339H170.85ZM164.125 52.5089C165.975 52.5089 167.49 52.5116 168.684 52.3511C169.915 52.1856 170.993 51.826 171.855 50.9639L170.052 49.1608C169.742 49.4702 169.292 49.6964 168.344 49.8238C167.36 49.9562 166.047 49.9589 164.125 49.9589V52.5089ZM164.125 1.50889C166.047 1.50889 167.36 1.51159 168.344 1.64396C169.292 1.7714 169.742 1.99761 170.052 2.30702L171.855 0.503898C170.993 -0.358268 169.915 -0.717842 168.684 -0.883297C167.49 -1.04382 165.975 -1.04111 164.125 -1.04111V1.50889ZM173.4 8.23389C173.4 6.38431 173.403 4.86887 173.242 3.67491C173.077 2.44427 172.717 1.36607 171.855 0.503898L170.052 2.30702C170.361 2.61643 170.587 3.06682 170.715 4.01469C170.847 4.99924 170.85 6.31222 170.85 8.23389H173.4ZM8 -1.04111C6.15043 -1.04111 4.63498 -1.04382 3.44102 -0.883297C2.21038 -0.717842 1.13218 -0.358268 0.270012 0.503898L2.07313 2.30702C2.38254 1.99761 2.83293 1.7714 3.7808 1.64396C4.76535 1.51159 6.07834 1.50889 8 1.50889V-1.04111ZM1.275 8.23389C1.275 6.31222 1.27771 4.99924 1.41008 4.01469C1.53752 3.06682 1.76373 2.61643 2.07313 2.30702L0.270012 0.503898C-0.592155 1.36607 -0.951729 2.44427 -1.11718 3.67491C-1.27771 4.86887 -1.275 6.38431 -1.275 8.23389H1.275Z" fill="#A6A6A6"/>
<defs>
<filter id="filter0_ii_1_11119" x="12.7156" y="9.33856" width="29.4395" height="32.7939" filterUnits="userSpaceOnUse" color-interpolation-filters="sRGB">
<feFlood flood-opacity="0" result="BackgroundImageFix"/>
<feBlend mode="normal" in="SourceGraphic" in2="BackgroundImageFix" result="shape"/>
<feColorMatrix in="SourceAlpha" type="matrix" values="0 0 0 0 0 0 0 0 0 0 0 0 0 0 0 0 0 0 127 0" result="hardAlpha"/>
<feOffset dy="-0.19125"/>
<feComposite in2="hardAlpha" operator="arithmetic" k2="-1" k3="1"/>
<feColorMatrix type="matrix" values="0 0 0 0 0 0 0 0 0 0 0 0 0 0 0 0 0 0 0.12 0"/>
<feBlend mode="normal" in2="shape" result="effect1_innerShadow_1_11119"/>
<feColorMatrix in="SourceAlpha" type="matrix" values="0 0 0 0 0 0 0 0 0 0 0 0 0 0 0 0 0 0 127 0" result="hardAlpha"/>
<feOffset dy="0.19125"/>
<feComposite in2="hardAlpha" operator="arithmetic" k2="-1" k3="1"/>
<feColorMatrix type="matrix" values="0 0 0 0 1 0 0 0 0 1 0 0 0 0 1 0 0 0 0.25 0"/>
<feBlend mode="normal" in2="effect1_innerShadow_1_11119" result="effect2_innerShadow_1_11119"/>
</filter>
<filter id="filter1_i_1_11119" x="13.306" y="25.7351" width="21.2747" height="16.3973" filterUnits="userSpaceOnUse" color-interpolation-filters="sRGB">
<feFlood flood-opacity="0" result="BackgroundImageFix"/>
<feBlend mode="normal" in="SourceGraphic" in2="BackgroundImageFix" result="shape"/>
<feColorMatrix in="SourceAlpha" type="matrix" values="0 0 0 0 0 0 0 0 0 0 0 0 0 0 0 0 0 0 127 0" result="hardAlpha"/>
<feOffset dy="-0.19125"/>
<feComposite in2="hardAlpha" operator="arithmetic" k2="-1" k3="1"/>
<feColorMatrix type="matrix" values="0 0 0 0 0 0 0 0 0 0 0 0 0 0 0 0 0 0 0.08 0"/>
<feBlend mode="normal" in2="shape" result="effect1_innerShadow_1_11119"/>
</filter>
<linearGradient id="paint0_linear_1_11119" x1="0" y1="0.233887" x2="3.89473" y2="61.8651" gradientUnits="userSpaceOnUse">
<stop stop-color="#1C2535"/>
<stop offset="1" stop-color="#04080F"/>
</linearGradient>
<linearGradient id="paint1_linear_1_11119" x1="27.796" y1="11.3379" x2="6.39897" y2="32.7349" gradientUnits="userSpaceOnUse">
<stop stop-color="#00A0FF"/>
<stop offset="0.0066" stop-color="#00A1FF"/>
<stop offset="0.2601" stop-color="#00BEFF"/>
<stop offset="0.5122" stop-color="#00D2FF"/>
<stop offset="0.7604" stop-color="#00DFFF"/>
<stop offset="1" stop-color="#00E3FF"/>
</linearGradient>
<linearGradient id="paint2_linear_1_11119" x1="43.1378" y1="25.7351" x2="12.288" y2="25.7351" gradientUnits="userSpaceOnUse">
<stop stop-color="#FFE000"/>
<stop offset="0.4087" stop-color="#FFBD00"/>
<stop offset="0.7754" stop-color="#FFA500"/>
<stop offset="1" stop-color="#FF9C00"/>
</linearGradient>
<linearGradient id="paint3_linear_1_11119" x1="31.6559" y1="28.6598" x2="2.63881" y2="57.6769" gradientUnits="userSpaceOnUse">
<stop stop-color="#FF3A44"/>
<stop offset="1" stop-color="#C31162"/>
</linearGradient>
<linearGradient id="paint4_linear_1_11119" x1="9.30425" y1="0.459303" x2="22.2612" y2="13.4162" gradientUnits="userSpaceOnUse">
<stop stop-color="#32A071"/>
<stop offset="0.0685" stop-color="#2DA771"/>
<stop offset="0.4762" stop-color="#15CF74"/>
<stop offset="0.8009" stop-color="#06E775"/>
<stop offset="1" stop-color="#00F076"/>
</linearGradient>
</defs>
</svg>
