<svg width="12" height="13" viewBox="0 0 12 13" fill="none" xmlns="http://www.w3.org/2000/svg">
<path opacity="0.4" fill-rule="evenodd" clip-rule="evenodd" d="M8.86829 3.52303C9.72195 4.18194 10.4488 5.14727 10.9707 6.35455C11.0098 6.44618 11.0098 6.55333 10.9707 6.64061C9.92683 9.05515 8.06829 10.5 6 10.5H5.99512C3.93171 10.5 2.07317 9.05515 1.02927 6.64061C0.990244 6.55333 0.990244 6.44618 1.02927 6.35455C2.07317 3.93952 3.93171 2.5 5.99512 2.5H6C7.03415 2.5 8.01463 2.85879 8.86829 3.52303ZM4.04878 6.5C4.04878 7.56667 4.92195 8.43455 6 8.43455C7.07317 8.43455 7.94634 7.56667 7.94634 6.5C7.94634 5.42848 7.07317 4.56061 6 4.56061C4.92195 4.56061 4.04878 5.42848 4.04878 6.5Z" fill="#121212"/>
<path d="M7.2154 6.49923C7.2154 7.16347 6.66905 7.7065 6.00076 7.7065C5.32759 7.7065 4.78125 7.16347 4.78125 6.49923C4.78125 6.41681 4.79101 6.33972 4.80564 6.26214H4.83003C5.37149 6.26214 5.81052 5.83547 5.83003 5.30165C5.88369 5.29244 5.94223 5.28711 6.00076 5.28711C6.66905 5.28711 7.2154 5.83014 7.2154 6.49923" fill="#121212"/>
</svg>
