<svg width="192" height="192" viewBox="0 0 192 192" fill="none" xmlns="http://www.w3.org/2000/svg">
<g filter="url(#filter0_f_1_10701)">
<circle cx="96" cy="96" r="36" fill="black"/>
</g>
<circle cx="96" cy="72" r="52" fill="#121212"/>
<g filter="url(#filter1_d_1_10701)">
<circle cx="96" cy="72" r="21" fill="url(#paint0_linear_1_10701)"/>
</g>
<g filter="url(#filter2_d_1_10701)">
<path d="M96.2057 77.8125V66.5625" stroke="white" stroke-width="1.5" stroke-linecap="round" stroke-linejoin="round"/>
<path d="M100.724 73.2754L96.206 77.8129L91.6873 73.2754" stroke="white" stroke-width="1.5" stroke-linecap="round" stroke-linejoin="round"/>
</g>
<path d="M60.3469 84.612C59.1293 85.3418 58.7784 86.727 59.5412 88.4988C60.3138 90.2934 61.6541 91.1183 63.0037 90.5318C64.056 90.0842 64.4513 89.1291 64.1355 87.6412L63.8546 86.3224C63.7144 85.6574 63.8183 85.2825 64.1659 85.122C64.5854 84.9523 65.0769 85.2765 65.3698 85.9569C65.6686 86.651 65.5704 87.24 65.0507 87.6045L65.9749 89.4745C67.2387 88.7139 67.5738 87.2165 66.7736 85.358C65.9912 83.5405 64.5039 82.6382 63.1183 83.2293C62.1066 83.6703 61.7843 84.5939 62.0916 86.0746L62.3824 87.4542C62.522 88.1681 62.4024 88.5065 62.0626 88.6474C61.6444 88.8328 61.166 88.4759 60.9065 87.8731C60.6155 87.1973 60.8124 86.6362 61.2232 86.3457L60.3469 84.612Z" fill="white"/>
<path d="M64.1869 73.2846C64.1704 71.2513 62.9669 69.9833 61.2112 69.8981L61.2274 71.8966C62.0437 72.0143 62.5054 72.5475 62.5113 73.2733C62.5194 74.2627 61.6944 74.9107 60.2328 74.9226C58.791 74.9343 57.9605 74.2947 57.9525 73.3104C57.9462 72.5348 58.4543 72.0335 59.214 71.913L59.1977 69.9145C57.4336 70.0183 56.2861 71.365 56.3023 73.3586C56.3211 75.6753 57.9385 77.094 60.2801 77.075C62.6017 77.0561 64.206 75.6361 64.1869 73.2846Z" fill="white"/>
<path d="M65.3206 63.6191L66.0683 61.6376L62.0261 60.1125C61.1469 59.7808 60.7844 58.9107 61.1144 58.0362C61.2179 57.7618 61.4066 57.4026 61.5373 57.2393L59.779 56.5759C59.6704 56.7369 59.5495 56.9729 59.474 57.1729C59.1722 57.973 59.3899 58.8043 60.1754 59.3983L60.1473 59.4727L58.9007 59.0023L58.1759 60.9234L65.3206 63.6191Z" fill="white"/>
<path d="M72.1027 51.8864C73.6472 50.1595 73.4262 48.0276 71.6733 46.46C69.9094 44.8824 67.7699 44.9031 66.2254 46.63C64.681 48.3568 64.8983 50.4854 66.6622 52.063C68.415 53.6307 70.5583 53.6133 72.1027 51.8864ZM70.8864 50.7853C70.1739 51.582 69.0793 51.3367 68.0862 50.4485C67.093 49.5603 66.7238 48.4964 67.4364 47.6997C68.1357 46.9178 69.234 47.1664 70.2272 48.0546C71.2203 48.9428 71.5858 50.0034 70.8864 50.7853Z" fill="white"/>
<path d="M76.4809 35.5662L74.624 36.5847L79.5208 45.5117L81.3776 44.4932L76.4809 35.5662Z" fill="white"/>
<path d="M86.9391 31.796L84.8799 32.2914L87.2616 42.1908L89.3207 41.6954L86.9391 31.796Z" fill="white"/>
<path d="M106.451 42.9901C107.601 43.4347 108.456 43.0028 108.959 42.515L109.042 42.5473L108.601 43.688L110.549 44.441L114.22 34.9442L112.249 34.1823L110.869 37.7529L110.809 37.7295C110.769 37.0477 110.472 36.1177 109.281 35.657C107.718 35.0529 105.927 35.7568 104.98 38.2052C104.059 40.5887 104.828 42.3626 106.451 42.9901ZM107.685 41.6601C106.716 41.2854 106.52 40.2186 107.001 38.9758C107.478 37.7423 108.325 37.0945 109.304 37.4728C110.264 37.8439 110.488 38.8633 109.996 40.1339C109.505 41.4045 108.635 42.0276 107.685 41.6601Z" fill="white"/>
<path d="M117.969 50.2358C119.612 51.8685 121.753 51.7595 123.41 50.0911C125.078 48.4123 125.169 46.2745 123.526 44.6418C121.882 43.009 119.745 43.1146 118.077 44.7935C116.42 46.4618 116.325 48.603 117.969 50.2358ZM119.132 49.0788C118.374 48.3255 118.676 47.2453 119.615 46.3C120.554 45.3547 121.636 45.0418 122.394 45.7951C123.138 46.5344 122.833 47.6182 121.893 48.5634C120.954 49.5087 119.876 49.8181 119.132 49.0788Z" fill="white"/>
<path d="M124.688 59.0354L125.416 61.151L130.384 60.8302L130.415 60.9195L126.3 63.7226L127.03 65.8429L134.925 65.3196L134.23 63.2981L129.028 63.857L129.007 63.7959L133.423 60.9522L132.739 58.9635L127.486 59.4663L127.464 59.4005L131.93 56.6129L131.234 54.5866L124.688 59.0354Z" fill="white"/>
<path d="M131.923 75.8534C132.899 75.9823 133.398 76.6368 133.29 77.4851C133.183 78.3285 132.566 78.7664 131.64 78.6439L127.191 78.0796L126.924 80.1807L131.748 80.7925C133.514 81.0165 134.73 80.1184 134.93 78.5401C135.073 77.4156 134.624 76.5317 133.784 76.0794L133.795 75.9907L135.132 76.1602L135.386 74.1578L127.81 73.1968L127.544 75.2979L131.923 75.8534Z" fill="white"/>
<defs>
<filter id="filter0_f_1_10701" x="0" y="0" width="192" height="192" filterUnits="userSpaceOnUse" color-interpolation-filters="sRGB">
<feFlood flood-opacity="0" result="BackgroundImageFix"/>
<feBlend mode="normal" in="SourceGraphic" in2="BackgroundImageFix" result="shape"/>
<feGaussianBlur stdDeviation="30" result="effect1_foregroundBlur_1_10701"/>
</filter>
<filter id="filter1_d_1_10701" x="60" y="44" width="72" height="72" filterUnits="userSpaceOnUse" color-interpolation-filters="sRGB">
<feFlood flood-opacity="0" result="BackgroundImageFix"/>
<feColorMatrix in="SourceAlpha" type="matrix" values="0 0 0 0 0 0 0 0 0 0 0 0 0 0 0 0 0 0 127 0" result="hardAlpha"/>
<feOffset dy="8"/>
<feGaussianBlur stdDeviation="7.5"/>
<feColorMatrix type="matrix" values="0 0 0 0 0 0 0 0 0 0 0 0 0 0 0 0 0 0 1 0"/>
<feBlend mode="normal" in2="BackgroundImageFix" result="effect1_dropShadow_1_10701"/>
<feBlend mode="normal" in="SourceGraphic" in2="effect1_dropShadow_1_10701" result="shape"/>
</filter>
<filter id="filter2_d_1_10701" x="72" y="56" width="48" height="48" filterUnits="userSpaceOnUse" color-interpolation-filters="sRGB">
<feFlood flood-opacity="0" result="BackgroundImageFix"/>
<feColorMatrix in="SourceAlpha" type="matrix" values="0 0 0 0 0 0 0 0 0 0 0 0 0 0 0 0 0 0 127 0" result="hardAlpha"/>
<feOffset dy="8"/>
<feGaussianBlur stdDeviation="7.5"/>
<feColorMatrix type="matrix" values="0 0 0 0 0.0705882 0 0 0 0 0.0705882 0 0 0 0 0.0705882 0 0 0 0.3 0"/>
<feBlend mode="normal" in2="BackgroundImageFix" result="effect1_dropShadow_1_10701"/>
<feBlend mode="normal" in="SourceGraphic" in2="effect1_dropShadow_1_10701" result="shape"/>
</filter>
<linearGradient id="paint0_linear_1_10701" x1="96" y1="51" x2="96" y2="93" gradientUnits="userSpaceOnUse">
<stop stop-color="#121212"/>
<stop offset="0.0001" stop-color="#303030"/>
<stop offset="1" stop-color="#1C1C1C"/>
</linearGradient>
</defs>
</svg>
