<svg width="30" height="20" viewBox="0 0 30 20" fill="none" xmlns="http://www.w3.org/2000/svg">
<path d="M29.4385 0.376953V19.1172" stroke="#E3E3E3" stroke-width="0.751441"/>
<g clip-path="url(#clip0_846_4404)">
<path d="M17.5662 17.739L13.8572 14.0235L17.5662 17.739ZM15.9126 9.05786C15.9126 10.9217 15.1722 12.7092 13.8543 14.0271C12.5363 15.345 10.7488 16.0855 8.88501 16.0855C7.02118 16.0855 5.23368 15.345 3.91576 14.0271C2.59783 12.7092 1.85742 10.9217 1.85742 9.05786C1.85742 7.19403 2.59783 5.40654 3.91576 4.08861C5.23368 2.77068 7.02118 2.03027 8.88501 2.03027C10.7488 2.03027 12.5363 2.77068 13.8543 4.08861C15.1722 5.40654 15.9126 7.19403 15.9126 9.05786V9.05786Z" stroke="#A5A5A5" stroke-width="1.12716" stroke-linecap="round" stroke-linejoin="round"/>
</g>
<defs>
<clipPath id="clip0_846_4404">
<rect width="18.7402" height="18.7402" fill="white" transform="translate(0.204102 0.376953)"/>
</clipPath>
</defs>
</svg>
