<svg width="20" height="20" viewBox="0 0 20 20" fill="none" xmlns="http://www.w3.org/2000/svg">
<path opacity="0.4" d="M11.4581 8.0861V6.4029C11.1277 6.4029 10.8536 6.13672 10.8536 5.81573V3.81154C10.8536 3.54458 10.636 3.33398 10.362 3.33398H4.82527C3.08446 3.33398 1.66602 4.71108 1.66602 6.4029V8.42979C1.66602 8.58715 1.73049 8.7359 1.84332 8.8455C1.95615 8.95432 2.10928 9.01695 2.27046 9.01695C2.88297 9.01695 3.35041 9.43971 3.35041 9.99556C3.35041 10.5757 2.87491 11.0376 2.27852 11.0446C1.94809 11.0446 1.66602 11.2717 1.66602 11.6005V13.6054C1.66602 15.2965 3.08446 16.6665 4.81721 16.6665H10.362C10.636 16.6665 10.8536 16.4544 10.8536 16.189V14.4972C10.8536 14.1691 11.1277 13.91 11.4581 13.91V12.392C11.1277 12.392 10.8536 12.125 10.8536 11.8048V8.67327C10.8536 8.35228 11.1277 8.0861 11.4581 8.0861Z" fill="#0A84FF"/>
<path d="M16.6492 9.99586C16.6492 10.5752 17.1327 11.0371 17.7211 11.0449C18.0515 11.0449 18.3336 11.272 18.3336 11.5929V13.605C18.3336 15.2968 16.9232 16.6668 15.1824 16.6668H12.5551C12.2891 16.6668 12.0634 16.4547 12.0634 16.1885V14.4975C12.0634 14.1686 11.7975 13.9103 11.459 13.9103V12.3923C11.7975 12.3923 12.0634 12.1253 12.0634 11.8051V8.67356C12.0634 8.3518 11.7975 8.0864 11.459 8.0864V6.40241C11.7975 6.40241 12.0634 6.13623 12.0634 5.81524V3.81184C12.0634 3.54488 12.2891 3.3335 12.5551 3.3335H15.1824C16.9232 3.3335 18.3336 4.70355 18.3336 6.39458V8.36745C18.3336 8.52403 18.2691 8.67356 18.1563 8.78238C18.0434 8.89199 17.8903 8.95462 17.7291 8.95462C17.1327 8.95462 16.6492 9.42513 16.6492 9.99586Z" fill="#0A84FF"/>
</svg>
