<svg width="24" height="24" viewBox="0 0 24 24" fill="none" xmlns="http://www.w3.org/2000/svg">
<path d="M8.27767 20.4286C5.96696 20.4286 3.81298 19.7565 2 18.5969C3.53928 18.6965 6.25576 18.4579 7.94541 16.8463C5.40363 16.7296 4.25733 14.7802 4.10781 13.9471C4.32378 14.0304 5.35379 14.1304 5.93524 13.8971C3.01136 13.164 2.56281 10.5981 2.66248 9.81498C3.21071 10.1982 4.14104 10.3315 4.50652 10.2982C1.78199 8.34874 2.76216 5.41626 3.24394 4.78311C5.19916 7.4919 8.12943 9.01326 11.7546 9.09789C11.6862 8.79811 11.6501 8.48601 11.6501 8.16546C11.6501 5.86494 13.5096 4 15.8034 4C17.0018 4 18.0817 4.50911 18.8398 5.32346C19.6406 5.13579 20.8459 4.69648 21.4352 4.31657C21.1382 5.38293 20.2135 6.27249 19.6542 6.6022C19.6589 6.61341 19.6497 6.59093 19.6542 6.6022C20.1455 6.52788 21.4748 6.27241 22 5.91611C21.7403 6.51518 20.76 7.51123 19.9555 8.06887C20.1052 14.67 15.0546 20.4286 8.27767 20.4286Z" fill="#47ACDF"/>
</svg>
